2.5Hzhigh3min_grf.mot
version=1
nRows=25
nColumns 19
inDegrees=yes
endheader
time	1_ground_force_vx	1_ground_force_vy	1_ground_force_vz	1_ground_force_px	1_ground_force_py	1_ground_force_pz	1_ground_torque_x	1_ground_torque_y	1_ground_torque_z	2_ground_force_vx	2_ground_force_vy	2_ground_force_vz	2_ground_force_px	2_ground_force_py	2_ground_force_pz	2_ground_torque_x	2_ground_torque_y	2_ground_torque_z
            2.502500	           17.390304	         1344.224852	          -73.750116	           -0.174624	            0.006222	           -0.402620	            0.026672	            2.061700	           -0.113114	          -14.013019	         1415.870659	          112.100258	           -0.179249	            0.005968	           -0.734633	            0.006252	           -0.631662	           -0.050011
            2.503000	           17.529235	         1341.519229	          -73.395205	           -0.174616	            0.006222	           -0.402599	            0.026024	            1.991618	           -0.108962	          -13.533529	         1412.744286	          111.384959	           -0.179282	            0.005968	           -0.734493	            0.007781	           -0.812203	           -0.064036
            2.503500	           17.759386	         1338.273840	          -73.272131	           -0.174582	            0.006222	           -0.402629	            0.025607	            1.929609	           -0.105648	          -13.620330	         1410.721686	          110.439210	           -0.179214	            0.005968	           -0.734470	            0.008800	           -0.911453	           -0.071354
            2.504000	           18.402853	         1335.387747	          -72.827524	           -0.174529	            0.006222	           -0.402651	            0.027707	            2.010546	           -0.109648	          -13.749889	         1407.593114	          109.724185	           -0.179110	            0.005968	           -0.734289	            0.008826	           -0.903494	           -0.070429
            2.504500	           18.542518	         1331.780026	          -72.247201	           -0.174463	            0.006222	           -0.402706	            0.028450	            2.043353	           -0.110849	          -14.261477	         1406.488373	          109.204246	           -0.179112	            0.005968	           -0.734345	            0.008544	           -0.842622	           -0.065424
            2.505000	           18.728028	         1328.172070	          -71.666993	           -0.174420	            0.006223	           -0.402902	            0.030737	            2.179867	           -0.117624	          -14.432528	         1401.886171	          108.577841	           -0.178914	            0.005968	           -0.734247	            0.008013	           -0.778315	           -0.060281
            2.505500	           18.455498	         1324.924076	          -70.900661	           -0.174410	            0.006223	           -0.402842	            0.031057	            2.229598	           -0.119312	          -14.613755	         1400.047815	          107.491996	           -0.178748	            0.005968	           -0.734183	            0.008446	           -0.809124	           -0.062122
            2.506000	           18.458091	         1321.315298	          -70.136574	           -0.174378	            0.006223	           -0.402793	            0.031225	            2.235238	           -0.118648	          -14.599941	         1396.181849	          107.149709	           -0.178732	            0.005968	           -0.734042	            0.009107	           -0.870914	           -0.066838
            2.506500	           18.688730	         1317.888949	          -69.830834	           -0.174307	            0.006223	           -0.402754	            0.030131	            2.124803	           -0.112587	          -14.546089	         1394.158920	          106.438532	           -0.178702	            0.005968	           -0.734085	            0.010487	           -1.005080	           -0.076734
            2.507000	           18.598892	         1313.380611	          -69.437231	           -0.174241	            0.006224	           -0.402948	            0.028654	            2.023426	           -0.106977	          -14.348405	         1391.215947	          105.630169	           -0.178626	            0.005968	           -0.734022	            0.011012	           -1.067706	           -0.081067
            2.507500	           19.058630	         1309.954259	          -69.177928	           -0.174100	            0.006223	           -0.402924	            0.029425	            2.022487	           -0.106806	          -14.245668	         1388.640369	          105.010857	           -0.178512	            0.005969	           -0.733986	            0.011071	           -1.079172	           -0.081608
            2.508000	           19.427173	         1305.085614	          -68.832861	           -0.174064	            0.006224	           -0.403030	            0.032053	            2.153245	           -0.113566	          -14.608271	         1385.143796	          104.013050	           -0.178422	            0.005969	           -0.734019	            0.010558	           -1.001082	           -0.075173
            2.508500	           19.245190	         1301.839604	          -68.525323	           -0.174077	            0.006224	           -0.402998	            0.032948	            2.228787	           -0.117317	          -15.159418	         1382.013200	          103.438982	           -0.178305	            0.005969	           -0.733957	            0.009841	           -0.897126	           -0.067147
            2.509000	           18.881171	         1297.509814	          -67.763417	           -0.174065	            0.006224	           -0.402959	            0.032697	            2.246934	           -0.117348	          -15.006467	         1378.516814	          102.910222	           -0.178183	            0.005969	           -0.733881	            0.009671	           -0.888408	           -0.066322
            2.509500	           19.159329	         1292.999141	          -66.866306	           -0.174055	            0.006224	           -0.402993	            0.032785	            2.212539	           -0.114420	          -15.134053	         1374.835927	          102.146290	           -0.178211	            0.005969	           -0.733709	            0.010915	           -0.991571	           -0.073671
            2.510000	           19.069164	         1289.031963	          -66.562088	           -0.173970	            0.006224	           -0.403003	            0.030263	            2.045694	           -0.105634	          -14.933588	         1371.155630	          101.616869	           -0.178017	            0.005970	           -0.733755	            0.012344	           -1.133346	           -0.083993
            2.510500	           19.254710	         1283.982275	          -66.079768	           -0.173908	            0.006224	           -0.403041	            0.030092	            2.006642	           -0.103271	          -14.875871	         1368.028740	          100.620181	           -0.177974	            0.005970	           -0.733691	            0.012904	           -1.186654	           -0.087280
            2.511000	           19.806298	         1279.654825	          -65.824557	           -0.173863	            0.006224	           -0.402958	            0.031780	            2.053241	           -0.105617	          -14.815311	         1364.163779	          100.043225	           -0.177877	            0.005970	           -0.733696	            0.012453	           -1.146642	           -0.084091
            2.511500	           19.762321	         1273.164195	          -65.577126	           -0.173691	            0.006225	           -0.403230	            0.032920	            2.120818	           -0.109237	          -15.037221	         1360.666543	           99.373847	           -0.177784	            0.005970	           -0.733592	            0.011550	           -1.045162	           -0.076332
            2.512000	           19.764378	         1269.376226	          -65.043087	           -0.173671	            0.006224	           -0.403089	            0.035050	            2.251109	           -0.115347	          -15.346869	         1355.511685	           98.651675	           -0.177639	            0.005970	           -0.733392	            0.010540	           -0.930983	           -0.067755
            2.512500	           19.903756	         1264.867933	          -64.650053	           -0.173676	            0.006225	           -0.403157	            0.035432	            2.251651	           -0.115087	          -15.425508	         1351.277647	           98.120386	           -0.177647	            0.005970	           -0.733480	            0.010970	           -0.960978	           -0.069780
            2.513000	           19.586103	         1258.915215	          -63.803499	           -0.173617	            0.006225	           -0.403157	            0.034319	            2.205855	           -0.111796	          -15.081211	         1346.677306	           97.493762	           -0.177440	            0.005970	           -0.733388	            0.012335	           -1.101459	           -0.079741
            2.513500	           19.771909	         1253.684960	          -63.230247	           -0.173518	            0.006225	           -0.403261	            0.032497	            2.060560	           -0.103925	          -14.832648	         1342.629445	           96.775278	           -0.177343	            0.005971	           -0.733351	            0.012439	           -1.125969	           -0.081159
            2.514000	           19.590594	         1249.897200	          -62.695752	           -0.173590	            0.006224	           -0.403122	            0.029958	            1.911342	           -0.095874	          -14.488974	         1338.212850	           96.243167	           -0.177257	            0.005971	           -0.733301	            0.013070	           -1.207134	           -0.086816
            2.514500	           20.142218	         1244.128018	          -62.538428	           -0.173563	            0.006225	           -0.403181	            0.032130	            1.984562	           -0.099758	          -14.521552	         1334.164309	           95.430947	           -0.177235	            0.005970	           -0.733221	            0.012301	           -1.130187	           -0.080841
